<?xml version="1.0" encoding="utf-8"?>
<!-- Generator: Adobe Illustrator 28.1.0, SVG Export Plug-In . SVG Version: 6.00 Build 0)  -->
<svg version="1.0" id="katman_1" xmlns="http://www.w3.org/2000/svg" xmlns:xlink="http://www.w3.org/1999/xlink" x="0px" y="0px"
	 viewBox="0 0 841.89 595.28" style="enable-background:new 0 0 841.89 595.28;" xml:space="preserve">
<style type="text/css">
	.st0{fill:#55575B;}
	.st1{fill:#009845;}
</style>
<path class="st0" d="M445.95,150.97h-30.48v291.68h30.48V150.97z M528.78,238.9H498.4v203.77h30.37V238.9z M534.33,175.07
	c1.84-11.32-5.85-21.99-17.17-23.83c-11.32-1.84-21.99,5.85-23.83,17.17l0,0c-1.84,11.32,5.85,21.98,17.17,23.82
	c11.32,1.84,21.98-5.85,23.82-17.17l0,0V175.07z M284.8,392.73c-21.52,17.07-48.19,26.33-75.65,26.28
	c-67.15,0.11-121.6-54.33-121.6-121.6c0-28.93,10.05-55.44,26.84-76.32l-22.31-22.42c-23.38,27.58-36.18,62.58-36.11,98.73
	c0,84.61,68.59,153.18,153.18,153.18c37.22,0,71.34-13.25,97.85-35.33C307,415.26,284.8,392.73,284.8,392.73z"/>
<path class="st1" d="M332.06,442.75h42.2l-45.51-49.59c21.78-27.15,33.64-60.94,33.59-95.75c0-84.6-68.59-153.18-153.18-153.18
	c-45.15-0.03-88.01,19.91-117.08,54.45l22.31,22.42c23.08-28.77,57.99-45.47,94.87-45.39c67.26,0,121.7,54.45,121.7,121.71
	c0,38.65-17.99,73.12-46.06,95.31l20.88,20.99l0.88,0.99l0.22,0.22L332.06,442.75z"/>
<path class="st0" d="M742.14,238.89h-42.29l-87.8,76.87l-0.13-164.79h-30.37v291.68h30.37v-94.1l90.12,94.1h42.18L636.79,333.65
	l105.36-94.77L742.14,238.89z M786.1,428.29v14.47h-2.53v-9.94l-4.31,9.94h-1.33l-4.42-9.94v9.94h-2.53v-14.47h3.09l4.52,10.61
	l4.41-10.61C783,428.29,786.1,428.29,786.1,428.29z M768.54,428.29v2.1h-4.42v12.37h-2.53V430.4h-4.42v-2.1H768.54z"/>
</svg>
